HIERARCHY
ROOT Hips
{
	OFFSET 0.000000 0.000000 0.000000
	CHANNELS 6 Xposition Yposition Zposition Xrotation Yrotation Zrotation
	JOINT LeftUpLeg_virtual
	{
		OFFSET 0.000000 0.000000 0.000000
		CHANNELS 3 Xrotation Yrotation Zrotation
		JOINT LeftUpLeg
		{
			OFFSET 13.026900 -6.336304 -1.092800
			CHANNELS 3 Xrotation Yrotation Zrotation
			JOINT LeftLeg
			{
				OFFSET 0.524474 -46.096886 9.782700
				CHANNELS 3 Xrotation Yrotation Zrotation
				JOINT LeftFoot
				{
					OFFSET -0.524474 -53.427422 -12.948200
					CHANNELS 3 Xrotation Yrotation Zrotation
					JOINT LeftToeBase
					{
						OFFSET 0.192200 -14.009700 16.364100
						CHANNELS 3 Xrotation Yrotation Zrotation
						JOINT LeftToe_End
						{
							OFFSET -1.784700 -0.561700 9.474800
							CHANNELS 3 Xrotation Yrotation Zrotation
							End Site
							{
								OFFSET 0 0 0
							}
						}
					}
				}
			}
		}
	}
	JOINT RightUpLeg_virtual
	{
		OFFSET 0.000000 0.000000 0.000000
		CHANNELS 3 Xrotation Yrotation Zrotation
		JOINT RightUpLeg
		{
			OFFSET -12.883000 -6.336304 -1.092800
			CHANNELS 3 Xrotation Yrotation Zrotation
			JOINT RightLeg
			{
				OFFSET -0.524587 -46.096825 9.782800
				CHANNELS 3 Xrotation Yrotation Zrotation
				JOINT RightFoot
				{
					OFFSET 0.524587 -53.427383 -12.948300
					CHANNELS 3 Xrotation Yrotation Zrotation
					JOINT RightToeBase
					{
						OFFSET -0.192200 -14.009700 16.364100
						CHANNELS 3 Xrotation Yrotation Zrotation
						JOINT RightToe_End
						{
							OFFSET 1.784700 -0.561700 9.474800
							CHANNELS 3 Xrotation Yrotation Zrotation
							End Site
							{
								OFFSET 0 0 0
							}
						}
					}
				}
			}
		}
	}
	JOINT Spine_virtual
	{
		OFFSET 0.000000 0.000000 0.000000
		CHANNELS 3 Xrotation Yrotation Zrotation
		JOINT Spine
		{
			OFFSET 0.072000 7.257294 -0.789700
			CHANNELS 3 Xrotation Yrotation Zrotation
			JOINT Spine1
			{
				OFFSET 0.000000 12.508769 -0.658067
				CHANNELS 3 Xrotation Yrotation Zrotation
				JOINT Spine1_split
				{
					OFFSET 0.000000 12.508769 -0.658067
					CHANNELS 3 Xrotation Yrotation Zrotation
					JOINT Spine2
					{
						OFFSET 0.000000 12.508769 -0.658067
						CHANNELS 3 Xrotation Yrotation Zrotation
						JOINT Neck_virtual
						{
							OFFSET 0.000000 0.000000 0.000000
							CHANNELS 3 Xrotation Yrotation Zrotation
							JOINT Neck
							{
								OFFSET 0.000000 14.033295 7.520400
								CHANNELS 3 Xrotation Yrotation Zrotation
								JOINT Head
								{
									OFFSET 0.000000 8.198502 5.703100
									CHANNELS 3 Xrotation Yrotation Zrotation
									JOINT HeadTop_End
									{
										OFFSET 0.000000 17.760803 13.332701
										CHANNELS 3 Xrotation Yrotation Zrotation
										End Site
										{
											OFFSET 0 0 0
										}
									}
								}
							}
						}
						JOINT LeftShoulder_virtual
						{
							OFFSET 0.000000 0.000000 0.000000
							CHANNELS 3 Xrotation Yrotation Zrotation
							JOINT LeftShoulder
							{
								OFFSET 6.292450 5.785301 -0.669000
								CHANNELS 3 Xrotation Yrotation Zrotation
								JOINT LeftShoulder_split
								{
									OFFSET 6.292450 5.785301 -0.669000
									CHANNELS 3 Xrotation Yrotation Zrotation
									JOINT LeftArm
									{
										OFFSET 13.907140 -6.093903 1.965100
										CHANNELS 3 Xrotation Yrotation Zrotation
										JOINT LeftForeArm
										{
											OFFSET 34.140198 0.000000 0.000000
											CHANNELS 3 Xrotation Yrotation Zrotation
											JOINT LeftHand
											{
												OFFSET 40.960209 0.000000 0.000000
												CHANNELS 3 Xrotation Yrotation Zrotation
												End Site
												{
													OFFSET 0 0 0
												}
											}
										}
									}
								}
							}
						}
						JOINT RightShoulder_virtual
						{
							OFFSET 0.000000 0.000000 0.000000
							CHANNELS 3 Xrotation Yrotation Zrotation
							JOINT RightShoulder
							{
								OFFSET -6.292450 5.785301 -0.669000
								CHANNELS 3 Xrotation Yrotation Zrotation
								JOINT RightShoulder_split
								{
									OFFSET -6.292450 5.785301 -0.669000
									CHANNELS 3 Xrotation Yrotation Zrotation
									JOINT RightArm
									{
										OFFSET -13.907140 -6.093903 1.965100
										CHANNELS 3 Xrotation Yrotation Zrotation
										JOINT RightForeArm
										{
											OFFSET -34.140198 0.000000 0.000000
											CHANNELS 3 Xrotation Yrotation Zrotation
											JOINT RightHand
											{
												OFFSET -40.960209 0.000000 0.000000
												CHANNELS 3 Xrotation Yrotation Zrotation
												End Site
												{
													OFFSET 0 0 0
												}
											}
										}
									}
								}
							}
						}
					}
				}
			}
		}
	}
}
MOTION
Frames: 4
Frame Time: 0.03333333
1.244415 109.076469 -4.127506 0.000000 0.000000 0.000000 -6.480130 -25.980527 1.881812 -15.086252 13.023266 9.657393 29.962244 9.145844 1.697046 -3.620380 18.386765 -11.748100 -1.861250 0.015752 -0.377941 0.000000 0.000000 0.000000 -5.654592 -25.290816 2.214567 -8.871001 -35.405450 -12.395204 34.325379 5.434756 -6.072356 -20.004333 -21.929432 6.380744 -6.257804 0.249406 0.124514 0.000000 0.000000 0.000000 -6.620799 -27.599936 1.296094 5.226599 -2.744631 -1.240888 1.243597 -2.749223 0.386029 0.704763 0.827900 0.004424 0.000000 0.000000 0.000000 0.833328 -2.425184 0.256575 1.974405 5.425985 -0.322737 0.122403 -19.175828 -3.431158 0.000000 0.000000 0.000000 1.339037 -2.602078 0.102463 -0.063475 -16.134372 -18.461988 -1.832699 -1.533102 -1.975163 16.509354 7.011335 -35.613996 171.419935 -82.179634 170.373946 0.000000 0.000000 0.000000 0.866846 -2.484507 0.273822 0.883931 15.314843 11.386502 2.534516 2.095323 0.105607 3.484180 28.161961 43.172697 -171.881082 83.854615 171.586250 0.000000 0.000000 0.000000 
0.480469 109.301529 -3.861183 0.000000 0.000000 0.000000 -6.686627 -27.705027 1.613802 -14.388885 13.067283 9.891986 30.535870 9.687784 1.545653 -4.009780 19.273872 -11.076714 -2.048858 0.050292 -0.589033 0.000000 0.000000 0.000000 -5.847855 -26.949095 1.957424 -8.383575 -35.005447 -11.964184 33.524573 5.740605 -6.096403 -19.878021 -21.281647 6.143445 -6.204643 0.245159 0.156924 0.000000 0.000000 0.000000 -6.811613 -29.103904 1.104180 5.264930 -2.652082 -1.173035 1.235972 -2.623730 0.364426 0.661009 0.775269 0.003582 0.000000 0.000000 0.000000 0.813452 -2.314809 0.236366 1.951489 5.477099 -0.300278 0.200670 -19.112585 -3.215862 0.000000 0.000000 0.000000 1.303158 -2.481279 0.079558 -0.072835 -16.154362 -18.409711 -1.744345 -1.522660 -2.075957 15.676333 6.730207 -35.757123 171.519615 -82.502415 170.476590 0.000000 0.000000 0.000000 0.845133 -2.370875 0.230983 0.861432 15.397856 11.315924 2.558017 2.140748 0.108455 3.988333 27.422639 42.474252 -172.877525 83.037820 172.571491 0.000000 0.000000 0.000000 
-0.255663 109.547707 -3.580975 0.000000 0.000000 0.000000 -6.897941 -29.501663 1.354343 -14.085237 13.101516 10.041308 31.175886 10.083644 1.392496 -4.433962 19.760065 -10.185385 -2.295997 0.106919 -0.822783 0.000000 0.000000 0.000000 -6.081827 -28.555682 1.706284 -7.835272 -34.471261 -11.567152 32.713259 5.834607 -6.053414 -19.764942 -20.550991 5.940583 -6.018990 0.233259 0.169024 0.000000 0.000000 0.000000 -6.986949 -30.502030 0.918353 5.302681 -2.498909 -1.151412 1.218633 -2.485889 0.336359 0.619111 0.678018 0.001122 0.000000 0.000000 0.000000 0.812566 -2.183453 0.212220 1.919575 5.515046 -0.306154 0.251831 -18.903337 -3.030053 0.000000 0.000000 0.000000 1.258100 -2.340531 0.047724 -0.084873 -16.189447 -18.354124 -1.656078 -1.515463 -2.153560 14.877615 6.410482 -35.878359 171.778875 -82.789338 170.737066 0.000000 0.000000 0.000000 0.816300 -2.237590 0.191437 0.846911 15.498831 11.272645 2.529749 2.197978 0.081305 4.534154 26.522963 41.866232 -173.746666 82.171028 173.438857 0.000000 0.000000 0.000000 
-0.963082 109.806549 -3.253258 0.000000 0.000000 0.000000 -7.114457 -31.303471 1.085255 -14.395660 13.073919 10.151218 31.841229 10.195043 1.261020 -4.590288 19.605110 -9.314283 -2.612070 0.170875 -1.042801 0.000000 0.000000 0.000000 -6.312693 -30.069696 1.454245 -7.258517 -33.867954 -11.202927 31.880687 5.720209 -5.951714 -19.622867 -19.760116 5.828308 -5.784523 0.221886 0.156974 0.000000 0.000000 0.000000 -7.144788 -31.803294 0.731151 5.346588 -2.287662 -1.161374 1.197298 -2.342722 0.301722 0.605127 0.555847 -0.004126 0.000000 0.000000 0.000000 0.834268 -2.037808 0.182233 1.868149 5.538465 -0.326230 0.250801 -18.566807 -2.869812 0.000000 0.000000 0.000000 1.208222 -2.187923 0.007358 -0.095537 -16.221926 -18.300401 -1.572223 -1.506511 -2.203708 14.158659 6.068335 -35.977140 172.130056 -83.040183 171.091048 0.000000 0.000000 0.000000 0.786383 -2.093561 0.154658 0.839237 15.591877 11.250024 2.473581 2.248184 0.031649 5.093441 25.584669 41.331817 -174.517740 81.275932 174.217785 0.000000 0.000000 0.000000 
